<svg xmlns="http://www.w3.org/2000/svg" viewBox="0 0 1200 630" width="1200" height="630">
  <defs>
    <linearGradient id="bg" x1="0" y1="0" x2="1" y2="1">
      <stop offset="0" stop-color="#0A0A0B"/>
      <stop offset="1" stop-color="#17171A"/>
    </linearGradient>
    <linearGradient id="gold" x1="0" y1="0" x2="1" y2="1">
      <stop offset="0" stop-color="#F5C542"/>
      <stop offset="1" stop-color="#C4880D"/>
    </linearGradient>
    <radialGradient id="glow" cx="50%" cy="30%" r="60%">
      <stop offset="0" stop-color="#E8A317" stop-opacity="0.25"/>
      <stop offset="1" stop-color="#E8A317" stop-opacity="0"/>
    </radialGradient>
  </defs>
  <rect width="1200" height="630" fill="url(#bg)"/>
  <rect width="1200" height="630" fill="url(#glow)"/>
  <g transform="translate(80, 120)">
    <rect width="88" height="88" rx="20" fill="url(#gold)"/>
    <g transform="translate(22, 22) scale(1.8)" fill="none" stroke="#0A0A0B" stroke-width="2.2" stroke-linecap="round" stroke-linejoin="round">
      <path d="M14.7 6.3a1 1 0 0 0 0 1.4l1.6 1.6a1 1 0 0 0 1.4 0l3.77-3.77a6 6 0 0 1-7.94 7.94l-6.91 6.91a2.12 2.12 0 0 1-3-3l6.91-6.91a6 6 0 0 1 7.94-7.94l-3.76 3.76z"/>
    </g>
  </g>
  <text x="80" y="290" font-family="'Plus Jakarta Sans', sans-serif" font-size="88" font-weight="800" fill="#FAFAFA" letter-spacing="-2">LT's <tspan fill="#E8A317">Mobile</tspan> Mechanics</text>
  <text x="80" y="370" font-family="'Inter', sans-serif" font-size="38" font-weight="500" fill="#B4B4BA">Mobile Auto Repair &#8226; Beaverton &amp; Portland, OR</text>
  <g transform="translate(80, 450)">
    <rect x="0" y="0" width="210" height="62" rx="31" fill="#E8A317"/>
    <text x="105" y="41" font-family="'Plus Jakarta Sans', sans-serif" font-size="26" font-weight="700" fill="#0A0A0B" text-anchor="middle">Open 24/7</text>
    <rect x="230" y="0" width="380" height="62" rx="31" fill="none" stroke="#B4B4BA" stroke-width="2"/>
    <text x="420" y="41" font-family="'Plus Jakarta Sans', sans-serif" font-size="26" font-weight="600" fill="#FAFAFA" text-anchor="middle">(971) 534-0360</text>
  </g>
</svg>
